# xmcd CD database file
# Copyright (C) 1993-2000  Ti Kan
#
# Track frame offsets:
#       150
#       27450
#       46977
#       62985
#       81817
#       107702
#       126832
#       143282
#       171235
#       190380
#       206172
#       227500
#       256750
#       275737
#
# Disc length: 4313 seconds
#
# Revision: 1
# Processed by: cddbd v1.4PL0 Copyright (c) Steve Scherf et al.
# Submitted via: xmcd 2.6 PL0
#
DISCID=c810d70e
DTITLE=The Breeze Kings - Tying One On... For The People
DYEAR=1900
DGENRE=
TTITLE0=Feeling Good
TTITLE1=Blind Love
TTITLE2=Thirteen Women
TTITLE3=Drivin Wheel
TTITLE4=You're Sweet
TTITLE5=Keep On Loving Me Baby
TTITLE6=Feeling Good
TTITLE7=No Fightin
TTITLE8=Rollin' And Tumblin'
TTITLE9=Other Side of Town
TTITLE10=I Wish You Would
TTITLE11=All Your Love
TTITLE12=Goin Down South
TTITLE13=One More Kiss
EXTD=
EXTT0=
EXTT1=
EXTT2=
EXTT3=
EXTT4=
EXTT5=
EXTT6=
EXTT7=
EXTT8=
EXTT9=
EXTT10=
EXTT11=
EXTT12=
EXTT13=
PLAYORDER=
